<svg width="22" height="16" viewBox="0 0 22 16" fill="none" xmlns="http://www.w3.org/2000/svg">
<path opacity="0.738" d="M11 15.5C8.59578 15.5058 6.24784 14.7727 4.274 13.4C2.34563 12.0634 0.85799 10.1838 0 8C0.868062 5.78982 2.38179 3.89239 4.34389 2.55501C6.30599 1.21762 8.62546 0.502319 11 0.502319C13.3745 0.502319 15.694 1.21762 17.6561 2.55501C19.6182 3.89239 21.1319 5.78982 22 8C21.1423 10.1837 19.655 12.0633 17.727 13.4C15.7529 14.7729 13.4046 15.506 11 15.5ZM11 3C10.0111 3 9.04439 3.29325 8.22215 3.84266C7.3999 4.39206 6.75904 5.17296 6.3806 6.08659C6.00216 7.00022 5.90315 8.00555 6.09607 8.97546C6.289 9.94536 6.7652 10.8363 7.46447 11.5355C8.16373 12.2348 9.05464 12.711 10.0245 12.9039C10.9945 13.0969 11.9998 12.9978 12.9134 12.6194C13.827 12.241 14.6079 11.6001 15.1573 10.7779C15.7068 9.95561 16 8.98891 16 8C15.9987 6.67433 15.4715 5.40333 14.5341 4.46593C13.5967 3.52854 12.3257 3.00133 11 3ZM11 11C10.4067 11 9.82664 10.8241 9.33329 10.4944C8.83994 10.1648 8.45542 9.69623 8.22836 9.14805C8.0013 8.59988 7.94189 7.99668 8.05764 7.41473C8.1734 6.83279 8.45912 6.29824 8.87868 5.87868C9.29824 5.45913 9.83279 5.1734 10.4147 5.05765C10.9967 4.94189 11.5999 5.0013 12.1481 5.22837C12.6962 5.45543 13.1648 5.83995 13.4944 6.33329C13.8241 6.82664 14 7.40666 14 8C14 8.79565 13.6839 9.55872 13.1213 10.1213C12.5587 10.6839 11.7956 11 11 11Z" fill="#626262"/>
</svg>
