<svg width="329" height="284" viewBox="0 0 329 284" fill="none" xmlns="http://www.w3.org/2000/svg">
<g clip-path="url(#clip0_1_870)">
<path d="M226.148 87.7847C226.136 94.2016 224.216 100.471 220.628 105.8C217.041 111.129 211.949 115.279 205.995 117.724C200.041 120.169 193.494 120.8 187.18 119.537C180.866 118.274 175.07 115.174 170.525 110.628C165.98 106.083 162.889 100.296 161.644 94.0004C160.399 87.7045 161.055 81.1822 163.53 75.2581C166.005 69.334 170.187 64.2743 175.548 60.7187C180.908 57.1631 187.207 55.2714 193.646 55.2828C197.925 55.2793 202.163 56.1184 206.115 57.752C210.067 59.3855 213.657 61.7813 216.677 64.8016C219.697 67.8219 222.089 71.4071 223.714 75.3514C225.339 79.2956 226.166 83.521 226.148 87.7847Z" fill="#F2F2F2"/>
<path d="M280.337 106.697L284.915 97.9867C280.809 93.0468 267.34 87.0555 267.34 87.0555L249.111 70.5214C248.916 69.7837 248.531 69.11 247.992 68.5681C247.454 68.0262 246.782 67.6352 246.043 67.4344C245.305 67.2337 244.526 67.2303 243.786 67.4247C243.046 67.619 242.371 68.0042 241.828 68.5414C241.284 69.0787 240.893 69.749 240.692 70.485C240.492 71.2209 240.489 71.9966 240.685 72.7338C240.881 73.471 241.268 74.1438 241.808 74.6844C242.348 75.225 243.021 75.6144 243.76 75.8134L263.454 99.3503L280.337 106.697Z" fill="#9E616A"/>
<path d="M278.119 106.096L284.583 108.147C289.284 109.639 294.35 109.526 298.979 107.828C300.379 107.308 301.606 106.409 302.52 105.231C303.435 104.053 304 102.644 304.153 101.163C304.347 99.1537 303.767 97.1461 302.532 95.5462C301.297 93.9462 299.498 92.8733 297.5 92.5444C291.438 91.5517 283.627 91.0621 280.84 94.3665L280.812 94.4L278.119 106.096Z" fill="#3F3D56"/>
<path d="M231.623 132.763C249.605 132.763 264.182 118.237 264.182 100.318C264.182 82.3998 249.605 67.8739 231.623 67.8739C213.641 67.8739 199.064 82.3998 199.064 100.318C199.064 118.237 213.641 132.763 231.623 132.763Z" fill="white"/>
<path d="M218.335 87.6278C217.888 90.0202 217.155 92.3507 216.152 94.5695C210.409 106.677 226.765 102.731 232.611 102.731C239.001 102.731 245.116 106.079 244.182 91.1996C243.783 84.8437 239.001 79.6687 232.611 79.6687C227.152 79.6687 219.477 82.0865 218.335 87.6278Z" fill="#2F2E41"/>
<path d="M231.653 102.728C236.846 102.728 241.056 98.5326 241.056 93.3576C241.056 88.1826 236.846 83.9874 231.653 83.9874C226.46 83.9874 222.25 88.1826 222.25 93.3576C222.25 98.5326 226.46 102.728 231.653 102.728Z" fill="#FFB6B6"/>
<path d="M225.267 83.806C226.915 82.805 228.802 82.2635 230.732 82.2381C232.662 82.2128 234.563 82.7045 236.236 83.6618C237.91 84.6192 239.295 86.007 240.246 87.6802C241.197 89.3535 241.68 91.2506 241.643 93.1732C236.852 94.372 231.818 95.2894 226.708 93.46L225.501 90.5171L224.79 93.4622C223.234 94.096 221.674 94.6322 220.114 93.456C220.05 91.5388 220.492 89.6385 221.397 87.945C222.301 86.2516 223.636 84.8243 225.267 83.806Z" fill="#2F2E41"/>
<path d="M256.939 121.892C251.299 128.288 243.36 132.216 234.838 132.83C226.315 133.444 217.892 130.693 211.387 125.172L214.18 117.407C214.811 116.028 215.807 114.846 217.061 113.988C218.315 113.13 219.779 112.628 221.298 112.537L223.074 112.428L227.311 108.787C227.311 108.787 238.725 108.381 238.556 108.187L245.47 112.331L245.465 112.302L248.183 112.468C249.701 112.559 251.166 113.061 252.42 113.919C253.674 114.777 254.67 115.959 255.301 117.339L256.939 121.892Z" fill="#0086FF"/>
<path d="M228.766 255.582L227.957 244.369C222.658 241.729 216.792 240.418 210.868 240.55C219.202 246.969 218.534 259.798 224.305 268.578C226.127 271.302 228.54 273.584 231.366 275.253C234.192 276.922 237.359 277.935 240.631 278.219L247.567 282.195C248.36 276.97 248.007 271.635 246.533 266.559C245.058 261.483 242.496 256.786 239.024 252.791C237.054 250.57 234.811 248.604 232.348 246.941C230.833 251.278 228.766 255.582 228.766 255.582Z" fill="#F2F2F2"/>
<path d="M17.8983 56.8373L17.0892 45.6245C11.7896 42.9846 5.92341 41.6737 0 41.8057C8.33344 48.2244 7.66594 61.0533 13.4373 69.833C15.2584 72.5576 17.6714 74.8389 20.4975 76.5078C23.3237 78.1768 26.4905 79.1906 29.7633 79.4742L36.6987 83.4502C37.4921 78.225 37.1393 72.8907 35.6645 67.8145C34.1898 62.7384 31.6282 58.0412 28.1562 54.0465C26.1862 51.8248 23.9433 49.8591 21.4803 48.1958C19.9643 52.5328 17.8983 56.8373 17.8983 56.8373Z" fill="#F2F2F2"/>
<path d="M259.106 278.404L253.696 278.404L251.122 257.611H259.107L259.106 278.404Z" fill="#9E616A"/>
<path d="M260.486 283.629L243.042 283.629V283.409C243.042 281.615 243.757 279.894 245.031 278.625C246.304 277.356 248.031 276.644 249.832 276.644H249.832L253.018 274.235L258.963 276.644L260.486 276.644L260.486 283.629Z" fill="#2F2E41"/>
<path d="M306.785 278.404L301.375 278.404L298.802 257.611H306.786L306.785 278.404Z" fill="#9E616A"/>
<path d="M308.164 283.629L290.721 283.629V283.409C290.721 281.615 291.436 279.894 292.71 278.625C293.983 277.356 295.71 276.644 297.51 276.643H297.511L300.697 274.235L306.642 276.644L308.165 276.644L308.164 283.629Z" fill="#2F2E41"/>
<path d="M298.557 167.119L303.107 210.192C303.107 210.192 309.164 253.322 308.026 259.273C306.889 265.224 308.311 266.074 308.311 266.074L297.931 265.337C297.931 265.337 298.216 261.653 296.509 259.953C294.803 258.253 295.656 253.152 295.656 253.152L275.522 182.988L263.293 219.827C263.293 219.827 261.303 260.351 261.018 260.918C260.734 261.484 259.881 269.136 259.881 269.136H249.358C249.358 269.136 250.78 264.602 248.79 263.185C246.799 261.768 245.093 262.901 246.799 260.351C248.505 257.8 249.074 254.683 248.505 253.266C247.936 251.849 247.936 246.182 247.936 246.182C247.936 246.182 248.79 169.669 253.624 167.119C258.459 164.568 298.557 167.119 298.557 167.119Z" fill="#2F2E41"/>
<path d="M277.008 79.9051C283.189 79.9051 288.2 74.9122 288.2 68.7531C288.2 62.5941 283.189 57.6012 277.008 57.6012C270.827 57.6012 265.817 62.5941 265.817 68.7531C265.817 74.9122 270.827 79.9051 277.008 79.9051Z" fill="#9E616A"/>
<path d="M302.425 171.813C280.751 176.273 252.029 168.605 252.029 168.605L259.691 135.51L256.967 100.875C256.634 96.6393 259.055 92.669 262.821 91.2622L268.022 89.3212L272.32 83.189L284.599 83.5904L289.507 90.0283L293.38 92.0761L301.778 96.5141L301.815 96.5325V96.5509L299.179 122.023L297.59 137.381C297.59 137.381 302.417 154.654 301.427 156.945C300.436 159.232 301.297 158.127 301.538 159.35C301.778 160.573 302.513 160.65 302.624 163.059C302.739 165.464 302.425 171.813 302.425 171.813Z" fill="#3F3D56"/>
<path d="M328.625 284H161.207C161.107 284 161.012 283.96 160.942 283.89C160.872 283.82 160.833 283.725 160.833 283.626C160.833 283.527 160.872 283.433 160.942 283.363C161.012 283.293 161.107 283.253 161.207 283.253H328.625C328.724 283.253 328.82 283.292 328.89 283.362C328.96 283.432 329 283.527 329 283.626C329 283.725 328.96 283.82 328.89 283.891C328.82 283.961 328.724 284 328.625 284Z" fill="#CCCCCC"/>
<path d="M276.464 79.3693C278.427 79.3493 280.384 79.1623 282.315 78.8103C284.227 78.3714 288.444 75.1216 289.594 73.2017C290.448 71.7753 290.96 69.5689 291.24 67.9693C291.618 65.8523 291.545 63.6799 291.027 61.5927C290.508 59.5055 289.555 57.55 288.23 55.853C287.72 55.1421 287.025 54.5819 286.221 54.2318C286.15 54.2062 286.077 54.1838 286.003 54.1649C284.838 53.8911 283.781 53.2765 282.969 52.4C282.811 52.2225 282.641 52.0566 282.459 51.9035C281.548 51.1764 280.477 50.6745 279.333 50.4389C277.486 49.9969 274.844 50.5508 271.48 52.0866C269.79 52.8582 267.915 52.643 266.469 52.3692C266.388 52.3558 266.305 52.3637 266.228 52.3922C266.151 52.4208 266.083 52.4689 266.03 52.5318C265.433 53.1197 264.635 53.4608 263.797 53.4864C263.283 53.5221 262.763 54.2449 262.135 55.1862C261.992 55.3999 261.826 55.6493 261.706 55.8014L261.682 55.5156L261.399 55.8424C260.955 56.356 260.649 56.9732 260.509 57.6364C260.369 58.2997 260.4 58.9875 260.598 59.6358C260.797 60.2841 261.157 60.8718 261.644 61.3442C262.132 61.8166 262.732 62.1583 263.388 62.3374C263.908 62.4612 264.44 62.5317 264.975 62.5478C265.299 62.5684 265.635 62.5898 265.957 62.637C266.991 62.8205 267.96 63.2682 268.769 63.9364C269.579 64.6046 270.2 65.4704 270.573 66.4494C270.661 66.6756 270.8 66.8786 270.98 67.0428C271.159 67.207 271.374 67.3279 271.607 67.3962C271.841 67.4645 272.087 67.4784 272.327 67.4368C272.567 67.3952 272.794 67.2993 272.991 67.1563C273.318 66.8885 273.706 66.7036 274.12 66.6173C274.535 66.531 274.964 66.5459 275.372 66.6608C275.726 66.8453 276.006 67.1457 276.165 67.5116C276.356 67.9187 276.665 68.2598 277.052 68.4912C278.372 69.1267 278.538 72.0883 278.135 74.5711C277.746 76.9642 276.899 78.71 276.076 78.8164C275.443 78.8983 275.371 78.9451 275.328 79.0582L275.289 79.1595L275.363 79.2514C275.717 79.3691 276.093 79.4093 276.464 79.3693Z" fill="#2F2E41"/>
<path d="M231.623 133.169C225.103 133.169 218.729 131.243 213.308 127.633C207.886 124.023 203.661 118.893 201.166 112.89C198.67 106.887 198.017 100.282 199.289 93.9095C200.562 87.5371 203.701 81.6836 208.312 77.0893C212.922 72.4951 218.797 69.3663 225.192 68.0988C231.587 66.8312 238.215 67.4818 244.239 69.9682C250.263 72.4546 255.412 76.6652 259.034 82.0674C262.657 87.4697 264.59 93.8211 264.59 100.318C264.58 109.028 261.104 117.378 254.923 123.537C248.743 129.695 240.363 133.159 231.623 133.169ZM231.623 68.2804C225.264 68.2804 219.048 70.1594 213.761 73.6798C208.474 77.2002 204.353 82.2038 201.919 88.058C199.486 93.9122 198.849 100.354 200.09 106.569C201.33 112.783 204.392 118.492 208.889 122.973C213.385 127.453 219.114 130.505 225.351 131.741C231.587 132.977 238.052 132.343 243.927 129.918C249.802 127.493 254.823 123.386 258.356 118.118C261.889 112.849 263.774 106.655 263.774 100.318C263.765 91.8244 260.374 83.681 254.347 77.6748C248.319 71.6686 240.147 68.29 231.623 68.2804Z" fill="#3F3D56"/>
<path d="M117.828 65.2953C135.81 65.2953 150.387 50.7694 150.387 32.8508C150.387 14.9323 135.81 0.406372 117.828 0.406372C99.8456 0.406372 85.2683 14.9323 85.2683 32.8508C85.2683 50.7694 99.8456 65.2953 117.828 65.2953Z" fill="white"/>
<path d="M119.335 36.1603C125.198 36.1603 129.952 31.4237 129.952 25.5808C129.952 19.7379 125.198 15.0012 119.335 15.0012C113.471 15.0012 108.718 19.7379 108.718 25.5808C108.718 31.4237 113.471 36.1603 119.335 36.1603Z" fill="#FFB8B8"/>
<path d="M128.683 18.5917C128.683 18.5917 131.447 13.3258 125.365 12.8471C125.365 12.8471 120.181 8.16061 114.896 11.9903C114.896 11.9903 112.014 11.9903 110.438 15.2407C110.438 15.2407 108.171 14.3839 107.672 16.6768C107.672 16.6768 106.013 21.464 107.672 25.7724C109.331 30.0808 109.882 30.5596 109.882 30.5596C109.882 30.5596 108.718 25.213 115.353 24.7343C121.988 24.2556 128.075 20.1137 128.628 25.3796C129.181 30.6454 129.789 28.2666 129.789 28.2666C129.789 28.2666 135.041 20.7459 128.683 18.5917Z" fill="#2F2E41"/>
<path d="M142.314 54.4244C136.673 60.8201 128.734 64.7489 120.212 65.3627C111.689 65.9764 103.266 63.2259 96.761 57.7049L99.5537 49.9398C100.185 48.5606 101.181 47.3787 102.435 46.5206C103.689 45.6625 105.153 45.1608 106.672 45.0691L108.448 44.9605L112.685 41.3196C112.685 41.3196 124.099 40.9135 123.93 40.719L130.844 44.8632L130.839 44.8346L133.557 45.0005C135.075 45.0918 136.54 45.5934 137.794 46.4515C139.048 47.3096 140.044 48.4918 140.675 49.8712L142.314 54.4244Z" fill="#0086FF"/>
<path d="M117.828 65.7017C111.307 65.7017 104.934 63.7751 99.5122 60.1654C94.0908 56.5557 89.8653 51.4251 87.3701 45.4223C84.8749 39.4196 84.222 32.8144 85.4941 26.442C86.7661 20.0695 89.9059 14.2161 94.5164 9.62181C99.127 5.02753 105.001 1.89879 111.396 0.631236C117.791 -0.636322 124.42 0.0142316 130.444 2.50063C136.468 4.98704 141.616 9.19761 145.239 14.5999C148.861 20.0022 150.795 26.3536 150.795 32.8509C150.785 41.5604 147.308 49.9104 141.128 56.069C134.948 62.2276 126.568 65.6918 117.828 65.7017ZM117.828 0.812876C111.469 0.812874 105.253 2.69187 99.9654 6.21225C94.6781 9.73263 90.5572 14.7363 88.1237 20.5905C85.6903 26.4446 85.0536 32.8864 86.2941 39.1012C87.5347 45.3159 90.5968 51.0246 95.0932 55.5051C99.5897 59.9857 105.319 63.0371 111.555 64.2733C117.792 65.5095 124.257 64.875 130.131 62.4501C136.006 60.0252 141.028 55.9188 144.561 50.6502C148.093 45.3816 149.979 39.1874 149.979 32.8509C149.969 24.3568 146.579 16.2134 140.551 10.2072C134.524 4.20103 126.352 0.822511 117.828 0.812876Z" fill="#3F3D56"/>
<path d="M41.8322 116.506C59.8142 116.506 74.3915 101.98 74.3915 84.061C74.3915 66.1425 59.8142 51.6166 41.8322 51.6166C23.8502 51.6166 9.27295 66.1425 9.27295 84.061C9.27295 101.98 23.8502 116.506 41.8322 116.506Z" fill="white"/>
<path d="M26.7412 73.5069C28.0875 69.2314 31.1491 65.3101 35.3831 63.8647C39.6174 62.4193 45.8175 64.6211 49.0008 67.7824C54.8236 73.565 56.2445 93.4306 52.2441 99.7083C51.4484 99.6663 48.7027 99.6353 47.8973 99.6052L46.758 95.8214V99.5679C45.475 99.5284 44.1819 99.5011 42.8788 99.4861C38.5097 99.4321 34.3317 97.6922 31.2233 94.6323C28.1148 91.5724 26.318 87.4307 26.2105 83.078C26.1063 78.9139 26.2106 75.1918 26.7412 73.5069Z" fill="#2F2E41"/>
<path d="M41.3492 87.677C46.474 87.677 50.6284 83.5372 50.6284 78.4305C50.6284 73.3239 46.474 69.1841 41.3492 69.1841C36.2245 69.1841 32.0701 73.3239 32.0701 78.4305C32.0701 83.5372 36.2245 87.677 41.3492 87.677Z" fill="#9E616A"/>
<path d="M33.3411 70.3099L44.0251 64.979C46.2094 65.9598 48.0906 67.5051 49.4736 69.4545C50.8566 71.404 51.691 73.6866 51.8903 76.0657L52.1567 79.2443L47.6827 78.1095L47.1925 74.045L46.4328 77.7924L44.3681 77.2689L44.3877 70.9589L42.3217 77.2644L34.9475 75.5762L33.3411 70.3099Z" fill="#2F2E41"/>
<path d="M65.9932 105.532C60.3524 111.927 52.4139 115.856 43.8913 116.47C35.3687 117.084 26.9457 114.333 20.4407 108.812L23.2334 101.047C23.8645 99.6678 24.8604 98.4858 26.1143 97.6278C27.3683 96.7697 28.833 96.268 30.3514 96.1763L32.128 96.0676L36.3644 92.4268C36.3644 92.4268 47.7791 92.0207 47.6098 91.8262L54.524 95.9704L54.5183 95.9418L57.2363 96.1077C58.7548 96.1989 60.2197 96.7005 61.4737 97.5586C62.7277 98.4167 63.7236 99.5989 64.3543 100.978L65.9932 105.532Z" fill="#0086FF"/>
<path d="M41.8323 116.912C35.3121 116.912 28.9382 114.985 23.5168 111.376C18.0954 107.766 13.8699 102.635 11.3747 96.6326C8.87952 90.6298 8.22666 84.0246 9.4987 77.6522C10.7707 71.2798 13.9106 65.4263 18.5211 60.832C23.1316 56.2377 29.0058 53.109 35.4008 51.8414C41.7958 50.5739 48.4243 51.2244 54.4483 53.7108C60.4722 56.1972 65.621 60.4078 69.2435 65.8101C72.8659 71.2124 74.7994 77.5638 74.7994 84.0611C74.7895 92.7706 71.313 101.121 65.1326 107.279C58.9522 113.438 50.5727 116.902 41.8323 116.912ZM41.8323 52.0231C35.4734 52.0231 29.2573 53.9021 23.97 57.4225C18.6827 60.9428 14.5618 65.9465 12.1284 71.8007C9.6949 77.6548 9.0582 84.0966 10.2988 90.3114C11.5393 96.5261 14.6014 102.235 19.0979 106.715C23.5943 111.196 29.3232 114.247 35.5599 115.483C41.7967 116.72 48.2612 116.085 54.1361 113.66C60.011 111.235 65.0324 107.129 68.5652 101.86C72.098 96.5918 73.9837 90.3976 73.9837 84.0611C73.974 75.567 70.5835 67.4236 64.5561 61.4174C58.5286 55.4112 50.3564 52.0327 41.8323 52.0231Z" fill="#3F3D56"/>
<path d="M261.694 117.15L256.765 108.632C250.379 109.44 238.087 117.564 238.087 117.564L214.311 124.047C213.582 123.815 212.804 123.779 212.056 123.942C211.309 124.105 210.617 124.461 210.052 124.975C209.486 125.488 209.066 126.142 208.835 126.868C208.603 127.595 208.567 128.37 208.732 129.115C208.896 129.86 209.254 130.548 209.771 131.111C210.287 131.674 210.943 132.092 211.672 132.322C212.402 132.552 213.18 132.586 213.927 132.422C214.674 132.257 215.365 131.899 215.929 131.384L246.424 127.42L261.694 117.15Z" fill="#9E616A"/>
<path d="M259.997 118.694L271.033 109.483L272.638 102.069C272.948 100.612 272.843 99.0985 272.335 97.6982C271.826 96.298 270.935 95.0673 269.762 94.1453C268.163 92.9061 266.151 92.3182 264.134 92.5004C262.116 92.6827 260.244 93.6214 258.894 95.127C254.806 99.6961 250.207 106.006 251.514 110.121L251.528 110.163L259.997 118.694Z" fill="#3F3D56"/>
<path d="M90.8512 150.692H49.3852C48.2739 150.691 47.2085 150.251 46.4227 149.468C45.6369 148.685 45.1949 147.623 45.1936 146.516V121.066C45.1949 119.959 45.6369 118.897 46.4227 118.114C47.2085 117.331 48.2739 116.891 49.3852 116.89H90.8512C91.9625 116.891 93.0279 117.331 93.8137 118.114C94.5995 118.897 95.0415 119.959 95.0428 121.066V146.516C95.0415 147.623 94.5995 148.685 93.8137 149.468C93.0279 150.251 91.9625 150.691 90.8512 150.692Z" fill="#E6E6E6"/>
<path d="M74.3761 147.414H52.3C51.2592 147.413 50.2614 147.001 49.5254 146.267C48.7895 145.534 48.3755 144.54 48.3743 143.503V124.079C48.3755 123.042 48.7895 122.048 49.5254 121.315C50.2614 120.581 51.2592 120.169 52.3 120.168H87.9366C88.9773 120.169 89.9751 120.581 90.7111 121.315C91.447 122.048 91.8609 123.042 91.8621 124.079V129.99C91.8568 134.61 90.0129 139.039 86.7347 142.305C83.4566 145.572 79.012 147.409 74.3761 147.414Z" fill="white"/>
<path d="M84.3815 130.803H55.8549C55.6082 130.803 55.3715 130.706 55.1971 130.532C55.0226 130.358 54.9246 130.122 54.9246 129.876C54.9246 129.63 55.0226 129.395 55.1971 129.221C55.3715 129.047 55.6082 128.949 55.8549 128.949H84.3815C84.6282 128.949 84.8649 129.047 85.0393 129.221C85.2138 129.395 85.3118 129.63 85.3118 129.876C85.3118 130.122 85.2138 130.358 85.0393 130.532C84.8649 130.706 84.6282 130.803 84.3815 130.803Z" fill="#0086FF"/>
<path d="M60.3172 134.467H55.8549C55.6082 134.467 55.3715 134.369 55.1971 134.195C55.0226 134.021 54.9246 133.785 54.9246 133.54C54.9246 133.294 55.0226 133.058 55.1971 132.884C55.3715 132.71 55.6082 132.612 55.8549 132.612H60.3172C60.564 132.612 60.8006 132.71 60.9751 132.884C61.1496 133.058 61.2476 133.294 61.2476 133.54C61.2476 133.785 61.1496 134.021 60.9751 134.195C60.8006 134.369 60.564 134.467 60.3172 134.467Z" fill="#0086FF"/>
<path d="M68.2205 138.13H55.855C55.6085 138.129 55.3724 138.032 55.1983 137.858C55.0243 137.684 54.9265 137.448 54.9265 137.203C54.9265 136.957 55.0243 136.722 55.1983 136.548C55.3724 136.374 55.6085 136.276 55.855 136.276H68.2205C68.467 136.276 68.7031 136.374 68.8772 136.548C69.0512 136.722 69.149 136.957 69.149 137.203C69.149 137.448 69.0512 137.684 68.8772 137.858C68.7031 138.032 68.467 138.129 68.2205 138.13Z" fill="#0086FF"/>
<path d="M43.7465 125.124C48.591 125.124 52.5182 121.21 52.5182 116.383C52.5182 111.555 48.591 107.642 43.7465 107.642C38.9021 107.642 34.9749 111.555 34.9749 116.383C34.9749 121.21 38.9021 125.124 43.7465 125.124Z" fill="#3F3D56"/>
<path d="M198.529 35.266H157.063C155.951 35.2647 154.886 34.8243 154.1 34.0413C153.314 33.2582 152.872 32.1966 152.871 31.0892V5.64006C152.872 4.53269 153.314 3.47104 154.1 2.688C154.886 1.90497 155.951 1.46451 157.063 1.46326H198.529C199.64 1.46451 200.705 1.90497 201.491 2.688C202.277 3.47103 202.719 4.53269 202.72 5.64006V31.0892C202.719 32.1966 202.277 33.2582 201.491 34.0413C200.705 34.8243 199.64 35.2648 198.529 35.266Z" fill="#E6E6E6"/>
<path d="M182.054 31.9879H159.977C158.937 31.9868 157.939 31.5743 157.203 30.841C156.467 30.1076 156.053 29.1134 156.052 28.0762V8.65291C156.053 7.6158 156.467 6.62151 157.203 5.88817C157.939 5.15484 158.937 4.74235 159.977 4.74121H195.614C196.655 4.74236 197.653 5.15486 198.389 5.88819C199.124 6.62153 199.538 7.61582 199.54 8.65291V14.5638C199.534 19.1834 197.69 23.6123 194.412 26.8788C191.134 30.1453 186.69 31.9827 182.054 31.9879Z" fill="white"/>
<path d="M192.059 15.377H163.532C163.286 15.377 163.049 15.2793 162.875 15.1054C162.7 14.9316 162.602 14.6958 162.602 14.4499C162.602 14.204 162.7 13.9682 162.875 13.7944C163.049 13.6205 163.286 13.5228 163.532 13.5228H192.059C192.306 13.5228 192.542 13.6205 192.717 13.7944C192.891 13.9682 192.989 14.204 192.989 14.4499C192.989 14.6958 192.891 14.9316 192.717 15.1054C192.542 15.2793 192.306 15.377 192.059 15.377Z" fill="#0086FF"/>
<path d="M167.995 19.0403H163.532C163.286 19.0403 163.049 18.9426 162.875 18.7687C162.7 18.5948 162.602 18.359 162.602 18.1131C162.602 17.8673 162.7 17.6314 162.875 17.4576C163.049 17.2837 163.286 17.186 163.532 17.186H167.995C168.241 17.186 168.478 17.2837 168.653 17.4576C168.827 17.6314 168.925 17.8673 168.925 18.1131C168.925 18.359 168.827 18.5948 168.653 18.7687C168.478 18.9426 168.241 19.0403 167.995 19.0403Z" fill="#0086FF"/>
<path d="M175.898 22.7036H163.532C163.286 22.7031 163.05 22.6052 162.876 22.4314C162.702 22.2575 162.604 22.022 162.604 21.7765C162.604 21.5309 162.702 21.2954 162.876 21.1216C163.05 20.9478 163.286 20.8499 163.532 20.8494H175.898C176.145 20.8494 176.381 20.947 176.556 21.1209C176.73 21.2948 176.828 21.5306 176.828 21.7765C176.828 22.0224 176.73 22.2582 176.556 22.432C176.381 22.6059 176.145 22.7036 175.898 22.7036Z" fill="#0086FF"/>
<path d="M151.424 40.1794C156.269 40.1794 160.196 36.266 160.196 31.4386C160.196 26.6113 156.269 22.6979 151.424 22.6979C146.58 22.6979 142.652 26.6113 142.652 31.4386C142.652 36.266 146.58 40.1794 151.424 40.1794Z" fill="#3F3D56"/>
<path d="M134.967 208.295C152.949 208.295 167.526 193.769 167.526 175.851C167.526 157.932 152.949 143.406 134.967 143.406C116.985 143.406 102.408 157.932 102.408 175.851C102.408 193.769 116.985 208.295 134.967 208.295Z" fill="white"/>
<path d="M136.474 179.16C142.338 179.16 147.091 174.424 147.091 168.581C147.091 162.738 142.338 158.001 136.474 158.001C130.61 158.001 125.857 162.738 125.857 168.581C125.857 174.424 130.61 179.16 136.474 179.16Z" fill="#FFB8B8"/>
<path d="M145.822 161.592C145.822 161.592 148.586 156.326 142.505 155.847C142.505 155.847 137.32 151.161 132.036 154.99C132.036 154.99 129.153 154.99 127.577 158.241C127.577 158.241 125.31 157.384 124.812 159.677C124.812 159.677 123.153 164.464 124.812 168.772C126.471 173.081 127.022 173.56 127.022 173.56C127.022 173.56 125.858 168.213 132.493 167.734C139.128 167.256 145.215 163.114 145.768 168.38C146.32 173.645 146.928 171.267 146.928 171.267C146.928 171.267 152.18 163.746 145.822 161.592Z" fill="#2F2E41"/>
<path d="M159.453 197.424C153.812 203.82 145.874 207.749 137.351 208.363C128.828 208.976 120.405 206.226 113.9 200.705L116.693 192.94C117.324 191.561 118.32 190.379 119.574 189.521C120.828 188.663 122.293 188.161 123.811 188.069L125.588 187.96L129.824 184.32C129.824 184.32 141.239 183.913 141.069 183.719L147.984 187.863L147.978 187.835L150.696 188.001C152.214 188.092 153.679 188.593 154.933 189.451C156.187 190.31 157.183 191.492 157.814 192.871L159.453 197.424Z" fill="#0086FF"/>
<path d="M134.967 208.702C128.447 208.702 122.073 206.775 116.652 203.165C111.23 199.556 107.005 194.425 104.509 188.422C102.014 182.42 101.361 175.814 102.633 169.442C103.906 163.07 107.045 157.216 111.656 152.622C116.266 148.028 122.141 144.899 128.536 143.631C134.931 142.364 141.559 143.014 147.583 145.501C153.607 147.987 158.756 152.198 162.378 157.6C166.001 163.002 167.934 169.354 167.934 175.851C167.924 184.56 164.448 192.91 158.267 199.069C152.087 205.228 143.707 208.692 134.967 208.702ZM134.967 143.813C128.608 143.813 122.392 145.692 117.105 149.212C111.818 152.733 107.697 157.736 105.263 163.59C102.83 169.445 102.193 175.886 103.434 182.101C104.674 188.316 107.736 194.025 112.233 198.505C116.729 202.986 122.458 206.037 128.695 207.273C134.931 208.509 141.396 207.875 147.271 205.45C153.146 203.025 158.167 198.919 161.7 193.65C165.233 188.382 167.118 182.187 167.118 175.851C167.109 167.357 163.718 159.213 157.691 153.207C151.663 147.201 143.491 143.823 134.967 143.813Z" fill="#3F3D56"/>
<path d="M215.668 178.266H174.202C173.091 178.265 172.025 177.824 171.24 177.041C170.454 176.258 170.012 175.197 170.01 174.089V148.64C170.012 147.533 170.454 146.471 171.24 145.688C172.025 144.905 173.091 144.465 174.202 144.463H215.668C216.779 144.465 217.845 144.905 218.631 145.688C219.416 146.471 219.858 147.533 219.86 148.64V174.089C219.858 175.197 219.416 176.258 218.631 177.041C217.845 177.824 216.779 178.265 215.668 178.266Z" fill="#E6E6E6"/>
<path d="M199.193 174.988H177.117C176.076 174.987 175.078 174.574 174.342 173.841C173.606 173.108 173.192 172.113 173.191 171.076V151.653C173.192 150.616 173.606 149.622 174.342 148.888C175.078 148.155 176.076 147.742 177.117 147.741H212.753C213.794 147.742 214.792 148.155 215.528 148.888C216.264 149.622 216.678 150.616 216.679 151.653V157.564C216.674 162.183 214.83 166.612 211.552 169.879C208.273 173.145 203.829 174.983 199.193 174.988Z" fill="white"/>
<path d="M209.198 158.377H180.672C180.425 158.377 180.188 158.279 180.014 158.105C179.839 157.932 179.741 157.696 179.741 157.45C179.741 157.204 179.839 156.968 180.014 156.794C180.188 156.62 180.425 156.523 180.672 156.523H209.198C209.445 156.523 209.682 156.62 209.856 156.794C210.031 156.968 210.129 157.204 210.129 157.45C210.129 157.696 210.031 157.932 209.856 158.105C209.682 158.279 209.445 158.377 209.198 158.377Z" fill="#0086FF"/>
<path d="M185.134 162.04H180.672C180.425 162.04 180.188 161.943 180.014 161.769C179.839 161.595 179.741 161.359 179.741 161.113C179.741 160.867 179.839 160.631 180.014 160.458C180.188 160.284 180.425 160.186 180.672 160.186H185.134C185.381 160.186 185.618 160.284 185.792 160.458C185.967 160.631 186.065 160.867 186.065 161.113C186.065 161.359 185.967 161.595 185.792 161.769C185.618 161.943 185.381 162.04 185.134 162.04Z" fill="#0086FF"/>
<path d="M193.037 165.704H180.672C180.425 165.703 180.189 165.605 180.015 165.431C179.841 165.258 179.743 165.022 179.743 164.776C179.743 164.531 179.841 164.295 180.015 164.122C180.189 163.948 180.425 163.85 180.672 163.849H193.037C193.284 163.849 193.521 163.947 193.695 164.121C193.87 164.295 193.968 164.531 193.968 164.776C193.968 165.022 193.87 165.258 193.695 165.432C193.521 165.606 193.284 165.704 193.037 165.704Z" fill="#0086FF"/>
<path d="M168.563 183.179C173.408 183.179 177.335 179.266 177.335 174.439C177.335 169.611 173.408 165.698 168.563 165.698C163.719 165.698 159.792 169.611 159.792 174.439C159.792 179.266 163.719 183.179 168.563 183.179Z" fill="#3F3D56"/>
</g>
<defs>
<clipPath id="clip0_1_870">
<rect width="329" height="284" fill="white"/>
</clipPath>
</defs>
</svg>
